<?xml version="1.0" encoding="UTF-8" standalone="no"?>
<svg
   width="210mm"
   height="210mm"
   viewBox="-10 -10 210 210"
   version="1.1"
   xmlns="http://www.w3.org/2000/svg"
   xmlns:svg="http://www.w3.org/2000/svg">
  <desc>Hand built by Rich Boakes</desc>
  <circle cx="90" cy="90" r="90" fill="#0038a6" stroke="white" stroke-width="0.2em"/>
  <g id="g3" transform="scale(0.26)">
    <g fill="#f9f9f9" transform="translate(-50, -50)">
      <path id="portsmouth" d="m 160.94788,268.72771 -6.10383,11.52512 19.51537,10.33554 -5.96731,11.26737 -54.27482,-28.74452 12.51966,-23.63938 q 4.32923,-8.17436 11.10101,-10.81167 6.77178,-2.63732 15.57211,2.02343 9.6104,5.08977 11.01298,12.05631 1.40258,6.96655 -3.37517,15.9878 z m -8.49604,-11.2891 q -0.78148,-3.24285 -5.01594,-5.48546 -4.23447,-2.24262 -7.22828,-0.95207 -2.97432,1.25374 -5.09993,5.26728 l -5.5968,10.56776 15.98052,8.46344 5.59679,-10.56775 q 2.12561,-4.01354 1.36364,-7.2932 z m 63.19204,-24.66533 q -8.82735,9.76928 -18.80989,10.1274 -12.78052,1.03084 -25.05396,-10.05922 -12.52075,-11.31353 -12.53922,-23.90933 -0.65237,-9.96764 8.17498,-19.73692 8.82736,-9.76928 18.8099,-10.12739 12.50526,-1.22341 25.02602,10.09012 12.27343,11.09006 12.56716,23.87842 0.65237,9.96764 -8.17499,19.73692 z m -4.11353,-20.05852 q -1.18457,-7.07913 -8.88252,-14.03486 -7.66703,-6.92779 -14.85755,-7.36011 -7.19351,-0.49116 -12.30555,5.16637 -5.11205,5.65752 -3.98334,12.79849 1.12871,7.14096 8.82665,14.09669 7.69795,6.95573 14.91641,7.35712 7.21846,0.4014 12.3305,-5.25613 5.11205,-5.65752 3.9554,-12.76757 z m 39.19906,-43.31723 -11.0764,7.27158 13.21689,20.13257 -10.48426,6.88284 -33.70535,-51.34154 25.18313,-16.53254 q 5.46747,-3.43982 9.15881,-4.11865 3.72617,-0.70169 7.30132,0.34058 2.95244,0.85297 5.48265,2.58124 2.5302,1.72827 4.5196,4.75861 2.40099,3.6573 2.88732,8.42203 0.46345,4.72991 -2.82558,8.98255 4.49033,-0.9043 7.69111,0.78249 3.21275,1.62909 6.75707,7.02797 l 2.26379,3.44831 q 2.30953,3.51797 3.41138,4.58897 1.72137,1.711 3.87135,1.64531 l 0.84606,1.28877 -11.80785,7.75177 q -1.60811,-1.38661 -2.50309,-2.29435 -1.83571,-1.88515 -3.35687,-4.12633 l -3.20238,-4.72617 q -3.29385,-4.8655 -6.11016,-5.35925 -2.78147,-0.51661 -7.51854,2.59324 z m 0.38523,-13.61087 q 2.2441,-3.56665 -0.59136,-7.88575 -3.06412,-4.66741 -7.21598,-4.23453 -2.33611,0.23771 -5.81925,2.52437 l -12.46965,8.18624 9.05517,13.79325 12.15617,-7.98044 q 3.62247,-2.37813 4.8849,-4.40314 z m 66.01767,-57.649695 3.7093,10.222855 -17.2731,6.26742 17.23897,47.5108 -12.14208,4.40567 -17.23897,-47.5108 -17.35143,6.29585 -3.70929,-10.22285 z m 51.4763,44.284285 q 4.5076,-0.55522 7.19743,-1.8941 5.10036,-2.55938 4.46364,-7.72865 -0.37184,-3.01885 -3.22226,-4.34701 -2.84532,-1.28681 -8.66365,-1.82959 l -6.62952,-0.65276 q -9.77633,-0.97884 -13.72621,-3.05319 -6.68133,-3.45915 -7.78668,-12.43299 -1.00857,-8.18812 4.27914,-14.339013 5.28771,-6.150894 16.82551,-7.572059 9.63551,-1.186851 17.04921,3.10568 7.44996,4.246082 8.97784,13.923552 l -12.24082,1.50776 q -1.00831,-5.45935 -5.7598,-7.225052 -3.16597,-1.163351 -7.59086,-0.618316 -4.92114,0.60616 -7.61278,2.952818 -2.69164,2.34665 -2.25358,5.90311 0.40241,3.26697 3.49586,4.52322 1.99337,0.84599 8.25071,1.54459 l 10.81466,1.22879 q 7.10989,0.8035 10.96628,3.14125 5.98849,3.62845 6.99197,11.77521 1.02894,8.35354 -4.69838,14.68452 -5.69106,6.28454 -17.35292,7.72099 -11.90999,1.46701 -19.4007,-3.10991 -7.49581,-4.61827 -8.66738,-14.12971 l 12.15811,-1.49758 q 1.09343,4.10546 3.04364,5.96432 3.56509,3.38119 11.09154,2.45412 z m 47.36543,6.88199 -11.85348,-1.58011 8.11525,-60.878128 18.50299,2.466508 4.68776,49.34372 17.36714,-46.403731 18.29648,2.43898 -8.11525,60.878131 -11.85348,-1.58011 5.48908,-41.1774 q 0.23674,-1.77596 0.70197,-4.95066 0.47074,-3.21599 0.70198,-4.95065 l -18.33349,49.55366 -12.34909,-1.64617 -4.63004,-52.614773 q -0.23124,1.734655 -0.61937,4.961663 -0.38263,3.18571 -0.61937,4.96166 z m 81.93239,21.85999 q -12.11521,-5.15584 -15.71152,-14.47495 -5.14533,-11.74436 1.3321,-26.96505 6.60797,-15.5274 18.5081,-19.6555 9.209,-3.86959 21.32421,1.28625 12.11521,5.15584 15.71152,14.47496 5.23752,11.42133 -1.37044,26.94873 -6.47744,15.22069 -18.46976,19.67182 -9.209,3.86959 -21.32421,-1.28626 z m 17.61785,-10.4344 q 6.30495,-3.43 10.36762,-12.97647 4.04636,-9.50814 2.10837,-16.44607 -1.88333,-6.95994 -8.89941,-9.94576 -7.01609,-2.98582 -13.39772,0.41154 -6.38164,3.39736 -10.44431,12.94384 -4.06267,9.54648 -2.08635,16.50072 1.97633,6.95424 8.99242,9.94006 7.01608,2.98582 13.35938,-0.42786 z m 61.59654,29.50933 23.06839,-29.8816 10.32334,7.96954 -23.0684,29.88161 q -5.98352,7.75075 -11.7267,10.21266 -10.59637,4.45286 -23.22844,-5.29902 -12.63207,-9.75187 -11.03976,-21.15579 0.92782,-6.17934 6.91135,-13.93009 l 23.06839,-29.88161 10.32334,7.96955 -23.0684,29.8816 q -3.87019,5.01325 -4.46517,8.23861 -1.31028,5.51562 4.89032,10.30244 6.16762,4.76136 11.17187,2.09746 2.96967,-1.39211 6.83987,-6.40536 z m 81.17032,32.91724 -8.45258,6.84247 -11.56141,-14.28195 -39.28347,31.80042 -8.12707,-10.03947 39.28347,-31.80042 -11.61384,-14.34673 8.45259,-6.84246 z m -27.04672,79.46579 24.71508,-11.8675 -10.38857,-21.63509 -24.71508,11.8675 -5.5009,-11.45608 55.3648,-26.58465 5.50089,11.45608 -21.10923,10.13608 10.38857,21.63509 21.10923,-10.13608 5.51893,11.49364 -55.36479,26.58465 z" />
      <path id="joggers" d="m 205.70254,614.4228 29.35735,-31.3618 9.36899,8.77019 -29.21497,31.20971 q -5.35323,5.71873 -10.46267,7.21395 -8.64235,2.52569 -17.37255,-5.64653 -8.7302,-8.17222 -7.44005,-15.52555 1.31862,-7.38376 8.72203,-15.29266 l 0.96814,-1.03423 8.85187,8.28611 -0.96814,1.03424 q -4.74748,5.31552 -5.73689,8.3845 -0.93051,3.06704 2.41556,6.19925 3.31566,3.10373 6.54439,1.78852 1.92015,-0.77088 4.96694,-4.0257 z m 41.09292,54.48473 q -11.43012,-6.53554 -13.91341,-16.21091 -3.73844,-12.26493 4.47235,-26.62492 8.37624,-14.64937 20.67707,-17.35935 9.59792,-2.76755 21.02805,3.76799 11.43012,6.53554 13.9134,16.21091 3.86773,11.95487 -4.50851,26.60424 -8.21079,14.35999 -20.64091,17.38003 -9.59792,2.76755 -21.02804,-3.76799 z m 18.71595,-8.30534 q 6.66241,-2.67014 11.81224,-11.67679 5.12916,-8.97047 4.01475,-16.08726 -1.05757,-7.13227 -7.67691,-10.9171 -6.61934,-3.78482 -13.35409,-1.15604 -6.73475,2.62877 -11.88459,11.63542 -5.14984,9.00664 -3.99925,16.14411 1.15058,7.13747 7.76993,10.92229 6.61934,3.78483 13.31792,1.13537 z m 67.27929,38.41374 q -5.71056,1.73071 -12.88378,-0.15393 -11.8076,-3.10223 -17.19418,-13.26285 -5.69838,-10.28562 -1.95028,-24.55145 3.79044,-14.42704 14.01631,-21.04581 10.22587,-6.61878 23.28274,-3.18832 11.32401,2.97518 16.66078,10.53787 5.38765,7.53297 4.13991,16.38135 l -12.21058,-3.20811 q 0.18829,-6.45572 -4.6571,-10.31361 -2.71332,-2.13454 -6.46113,-3.11921 -7.17321,-1.88463 -13.23695,2.33813 -6.01286,4.19305 -8.87157,15.07377 -2.87989,10.96132 0.92076,16.828 3.80064,5.86667 10.16788,7.53955 6.24634,1.64112 11.17826,-0.8973 4.9425,-2.57871 7.40462,-8.17854 l -13.74196,-3.61045 2.60461,-9.91355 24.74357,6.50093 -8.37497,31.87649 -8.22099,-2.15992 0.69889,-7.74323 q -4.69833,3.28907 -8.01484,4.27019 z m 79.8917,7.19768 q -5.06587,3.15322 -12.48242,3.19447 -12.20814,0.0679 -20.04672,-8.34696 -8.17215,-8.45468 -8.25418,-23.20444 -0.083,-14.91643 8.07518,-23.96194 8.15815,-9.04551 21.65794,-9.12059 11.70814,-0.0651 18.8245,5.85372 7.1578,5.87695 8.24881,14.74601 l -12.6248,0.0702 q -1.4933,-6.28346 -7.17379,-8.7519 -3.17426,-1.35737 -7.0492,-1.33582 -7.41655,0.0413 -12.17685,5.69281 -4.71887,5.60967 -4.65631,16.85949 0.063,11.33315 5.25581,16.01267 5.19277,4.67953 11.776,4.64291 6.45823,-0.0359 10.56254,-3.76713 4.10408,-3.77289 5.02879,-9.81979 l -14.20811,0.079 -0.057,-10.24984 25.58292,-0.14229 0.18331,32.95781 -8.49987,0.0473 -1.33428,-7.65936 q -3.68395,4.39555 -6.63227,6.20364 z m 77.85039,-39.44258 -28.88137,7.47618 3.95736,15.28776 32.91509,-8.52033 2.76702,10.68933 -45.05656,11.66326 -15.3909,-59.45691 43.60442,-11.28736 2.72526,10.52799 -31.46296,8.14444 3.26822,12.62551 28.88138,-7.47617 z m 45.4483,-17.7816 -11.66821,6.27815 11.41123,21.20826 -11.04444,5.94253 -29.10061,-54.08474 26.52868,-14.2739 q 5.74656,-2.95003 9.48303,-3.30443 3.77316,-0.37414 7.24382,0.97588 2.86683,1.10713 5.23672,3.04943 2.36988,1.9423 4.08749,5.13454 2.07297,3.85271 2.14202,8.64171 0.0493,4.7523 -3.598,8.70198 4.55209,-0.50935 7.59361,1.45009 3.05847,1.903 6.11857,7.59034 l 1.95452,3.63255 q 1.99401,3.70595 2.99828,4.86894 1.56564,1.85456 3.71316,1.97658 l 0.73048,1.35762 -12.43876,6.69275 q -1.48108,-1.52154 -2.29352,-2.50386 -1.66435,-2.03802 -2.98431,-4.40329 l -2.77812,-4.98739 q -2.85709,-5.13416 -5.61962,-5.87157 -2.72584,-0.75716 -7.71602,1.92783 z m 1.57048,-13.52545 q 2.54652,-3.35741 0.0984,-7.90728 -2.64551,-4.91679 -6.8193,-4.84755 -2.34794,0.0331 -6.01718,2.00738 l -13.13592,7.06786 7.81808,14.53022 12.80568,-6.89017 q 3.81601,-2.05323 5.2502,-3.96046 z m 62.90563,-13.74151 q 3.37232,-3.04206 4.80635,-5.68239 2.7073,-5.02342 -0.7813,-8.89077 -2.03734,-2.25853 -5.13378,-1.70992 -3.06852,0.57955 -8.1444,3.4749 l -5.80326,3.27091 q -8.56718,4.81021 -12.99223,5.37892 -7.45658,1.00265 -13.51279,-5.71106 -5.52594,-6.12588 -4.72681,-14.19773 0.79913,-8.07185 9.43106,-15.8584 7.20873,-6.50276 15.74338,-7.24339 8.53769,-0.79948 15.34377,6.24786 l -9.15788,8.26101 q -3.95939,-3.89159 -8.86367,-2.61001 -3.26022,0.8647 -6.57067,3.85094 -3.68171,3.32115 -4.53874,6.78773 -0.85703,3.46659 1.54312,6.12733 2.2048,2.44416 5.45896,1.69716 2.11787,-0.45149 7.64268,-3.47123 l 9.56089,-5.20157 q 6.28313,-3.42322 10.78281,-3.72257 6.98644,-0.46633 12.48447,5.62861 5.63758,6.24964 4.58185,14.7213 -1.0527,8.41281 -9.77744,16.2831 -8.91037,8.03773 -17.67132,8.5897 -8.78886,0.52104 -15.20789,-6.59488 l 9.09601,-8.20519 q 3.25193,2.73409 5.91586,3.13677 4.86011,0.72227 10.49097,-4.35713 z" />
    </g>

    <g style="fill:#ffd42a" transform="translate(210, 130)">
      <path id="star" d="M 131.977,30.848 C 139.132,19.018 138.75,0 138.75,0 c 0,0 7.61,14.825 6.5,31.295 -1,14.833 7.772,27.606 5.553,23.592 0,0 5.548,-9.94 19.389,-12.408 15.059,-2.685 27.945,-17.882 27.945,-17.882 0,0 -6.387,20.198 -17.768,27.766 -10.176,6.767 -12.522,19.569 -12.522,19.569 0,0 12.403,-2.137 23.716,5.208 13.011,8.447 31.173,6.845 31.173,6.845 0,0 -14.656,9.659 -31.272,6.867 -15.213,-2.556 -23.616,5.186 -23.616,5.186 0,0 9.903,7.758 12.26,19.159 2.812,13.604 18.03,28.175 18.03,28.175 0,0 -17.584,-3.584 -26.478,-16.943 -8.409,-12.632 -20.856,-13.346 -20.856,-13.346 0,0 2.968,12.308 -5.326,24.254 -8.478,12.208 -6.728,30.632 -6.728,30.632 0,0 -9.155,-17.661 -7.083,-32.258 1.833,-12.916 -4.969,-22.629 -4.969,-22.629 0,0 -7.782,12.38 -21.782,14.38 -13.673,1.953 -25.552,15.909 -25.552,15.909 0,0 3.754,-17.265 16.219,-25.576 11,-7.333 14.07,-21.758 14.07,-21.758 0,0 -13.974,0.882 -24.737,-5.576 -13.333,-8 -30.151,-6.477 -30.151,-6.477 0,0 11.149,-6.798 28.68,-6.298 15.471,0.442 26.208,-5.755 26.208,-5.755 0,0 -9.239,-6.355 -13.091,-20.458 C 92.916,38.128 79.364,24.597 79.364,24.597 c 0,0 19.315,3.782 27.886,17.198 7.667,12 19.448,13.092 19.448,13.092 0,0 -1.948,-12.092 5.279,-24.039 z" />
      <path id="moon" d="m 195.11505,153.7289 -0.0121,-0.0126 C 243.65079,175.31958 277.5,223.97934 277.5,280.545 c 0,76.62951 -62.12049,138.75 -138.75,138.75 C 62.120491,419.295 0,357.17451 0,280.545 0,223.97934 33.849209,175.31958 82.39704,153.71632 57.49905,171.38366 41.25,200.44174 41.25,233.295 c 0,53.84776 43.652237,97.5 97.5,97.5 53.84776,0 97.5,-43.65224 97.5,-97.5 0,-32.84714 -16.243,-61.90052 -41.13495,-79.5661 l -0.0121,-0.0126 z" />
    </g>
</g>

</svg>
